PathFileType	4	(X/Y/Z)	C:/Users/opensim2020/Desktop/walking_exp_matlab/subject03_walking05_straight_04.trc																																																																																																																																					
DataRate	CameraRate	NumFrames	NumMarkers	Units	OrigDataRate	OrigDataStartFrame	OrigNumFrames																																																																																																																																	
100	100	5	45	mm	100	2855	294																																																																																																																																	
Frame#	Time	LFHD			RFHD			LBHD			RBHD			C7			T10			CLAV			STRN			RBAK			LSHO			LUPA			LELB			LFRM			LWRA			LWRB			LFIN			RSHO			RUPA			RELB			RFRM			RWRA			RWRB			RFIN			LASI			RASI			LPSI			RPSI			LTHI			LKNE			LTIB			LANK			LHEE			LTOE			RTHI			RKNE			RTIB			RANK			RHEE			RTOE			*39			*40			*41			*42			*43			*44		
		X1	Y1	Z1	X2	Y2	Z2	X3	Y3	Z3	X4	Y4	Z4	X5	Y5	Z5	X6	Y6	Z6	X7	Y7	Z7	X8	Y8	Z8	X9	Y9	Z9	X10	Y10	Z10	X11	Y11	Z11	X12	Y12	Z12	X13	Y13	Z13	X14	Y14	Z14	X15	Y15	Z15	X16	Y16	Z16	X17	Y17	Z17	X18	Y18	Z18	X19	Y19	Z19	X20	Y20	Z20	X21	Y21	Z21	X22	Y22	Z22	X23	Y23	Z23	X24	Y24	Z24	X25	Y25	Z25	X26	Y26	Z26	X27	Y27	Z27	X28	Y28	Z28	X29	Y29	Z29	X30	Y30	Z30	X31	Y31	Z31	X32	Y32	Z32	X33	Y33	Z33	X34	Y34	Z34	X35	Y35	Z35	X36	Y36	Z36	X37	Y37	Z37	X38	Y38	Z38	X39	Y39	Z39	X40	Y40	Z40	X41	Y41	Z41	X42	Y42	Z42	X43	Y43	Z43	X44	Y44	Z44	X45	Y45	Z45
																																																																																																																																								
1	0	-1584.98438	1599.76111	-1457.94995	-1587.55005	1598.48767	-1324.50024	-1718.45129	1575.9823	-1457.23828	-1716.41406	1573.87646	-1325.82703	-1771.84253	1414.66992	-1392.58313	-1821.02563	1099.56689	-1388.16211	-1654.8031	1330.93762	-1405.55957	-1622.06555	1164.83301	-1411.22327	-1822.81067	1241.98145	-1285.43311	-1720.20276	1369.6051	-1555.79175	-1768.21643	1173.03979	-1616.84949	-1782.29321	1050.20984	-1626.7478	-1776.97083	919.87	-1630.35059	-1769.7605	800.3692	-1604.66931	-1804.30115	809.14667	-1646.96716	-1803.23767	723.86707	-1637.77087	-1678.65454	1359.85022	-1241.56726	-1648.71985	1138.13953	-1172.7561	-1616.65149	1029.58411	-1168.32996	-1574.5542	900.82013	-1184.62561	-1536.81787	817.39856	-1237.30566	-1552.40515	802.97064	-1187.64417	-1518.41309	741.21454	-1210.40137	-1658.34753	938.88971	-1518.88586	-1646.06836	929.87146	-1281.51538	-1820.0127	951.54517	-1462.67114	-1811.01563	959.75793	-1313.48572	-1647.46826	644.00006	-1585.99512	-1576.58215	478.96082	-1555.89246	-1571.81152	287.8364	-1572.63904	-1519.69568	80.72457	-1556.18164	-1545.45178	34.46609	-1516.42212	-1366.20789	77.28855	-1546.5155	-1730.78625	635.59711	-1252.00684	-1752.07141	458.09756	-1295.31372	-1831.63257	282.58401	-1291.54138	-1912.4248	80.05949	-1337.68774	-1967.22888	53.70533	-1379.47693	-1778.7395	37.28836	-1373.2373	NaN	NaN	NaN	NaN	NaN	NaN	NaN	NaN	NaN	NaN	NaN	NaN	NaN	NaN	NaN	NaN	NaN	NaN
2	0.01	-1576.03259	1599.43408	-1459.83203	-1579.26025	1597.77808	-1326.39246	-1709.37634	1574.94946	-1459.89221	-1708.2157	1572.5603	-1328.60437	-1762.45972	1413.77185	-1395.80981	-1812.30945	1098.86633	-1391.17126	-1645.32068	1330.05115	-1407.89429	-1613.02063	1163.8092	-1413.05115	-1814.0282	1241.27051	-1288.32666	-1709.55127	1368.48962	-1558.69458	-1758.19434	1171.97485	-1619.62073	-1773.28699	1049.28674	-1629.28931	-1769.57739	918.81793	-1632.41284	-1763.85059	800.10553	-1607.37585	-1798.27942	808.39148	-1649.01526	-1798.6001	723.19849	-1639.64001	-1670.13367	1359.19678	-1244.23108	-1641.04065	1137.55298	-1174.92957	-1609.28003	1028.92358	-1170.26697	-1566.95508	900.28668	-1186.58911	-1528.55957	817.13116	-1239.41125	-1544.58594	802.50684	-1189.89111	-1510.21448	741.03064	-1212.6908	-1648.82654	937.66083	-1520.72327	-1638.44324	929.09937	-1283.12732	-1810.97095	950.45923	-1465.57507	-1803.13843	958.84186	-1316.38501	-1639.59326	642.27167	-1587.61243	-1570.1051	476.85309	-1555.84253	-1560.24219	287.06732	-1573.70142	-1502.13489	81.31707	-1558.62097	-1527.09375	34.3056	-1519.39954	-1347.99768	80.89616	-1546.91162	-1724.87903	635.40466	-1253.20532	-1747.02588	457.85645	-1296.07922	-1828.89954	282.81711	-1292.4071	-1912.02771	81.42815	-1338.0127	-1966.91272	55.68293	-1379.86707	-1778.64343	37.22652	-1373.19104	NaN	NaN	NaN	NaN	NaN	NaN	NaN	NaN	NaN	NaN	NaN	NaN	NaN	NaN	NaN	NaN	NaN	NaN
3	0.02	-1567.02795	1599.17798	-1461.73572	-1570.99609	1597.24377	-1328.3634	-1700.23535	1574.00024	-1462.55286	-1699.65588	1571.29968	-1331.17603	-1753.21606	1413.0719	-1399.17749	-1803.37805	1098.25122	-1394.25098	-1635.75537	1329.1936	-1410.25623	-1603.86963	1162.83105	-1414.90234	-1805.44934	1240.85535	-1291.60437	-1698.83899	1367.47705	-1561.65076	-1748.0448	1170.97034	-1622.37915	-1764.00757	1048.3291	-1631.78796	-1761.8595	917.85138	-1634.51672	-1758.19678	798.96533	-1608.85486	-1791.8064	807.8197	-1651.23328	-1793.38391	722.5564	-1641.59094	-1661.64941	1358.48828	-1246.66345	-1633.36646	1136.95264	-1177.20886	-1601.95764	1028.27161	-1172.29749	-1559.41406	899.64874	-1188.58289	-1520.7323	816.64667	-1241.34668	-1536.96863	801.97327	-1192.05566	-1502.29785	740.64679	-1214.82935	-1639.25391	936.73621	-1522.71582	-1631.23486	928.24634	-1284.60669	-1801.78613	949.39471	-1468.55396	-1795.04358	958.03296	-1319.32324	-1631.67834	640.56769	-1588.83289	-1563.4967	474.87527	-1555.91589	-1549.49719	286.47281	-1574.73523	-1486.86389	81.74855	-1560.75195	-1511.27698	34.28022	-1522.20239	-1332.18445	83.64209	-1546.83716	-1718.63782	635.16534	-1254.70862	-1741.72437	457.64801	-1296.95972	-1825.52844	283.65463	-1293.02649	-1911.47241	83.03486	-1338.26062	-1966.57373	57.9414	-1380.30286	-1778.53088	37.14851	-1373.14636	NaN	NaN	NaN	NaN	NaN	NaN	NaN	NaN	NaN	NaN	NaN	NaN	NaN	NaN	NaN	NaN	NaN	NaN
4	0.03	-1557.94714	1598.98279	-1463.71057	-1562.45374	1596.66504	-1330.33984	-1691.04285	1573.18774	-1465.33459	-1691.06567	1570.19067	-1333.84485	-1743.7688	1412.40308	-1402.5238	-1794.3186	1097.66992	-1397.32031	-1626.17175	1328.44849	-1412.6333	-1594.58997	1161.97424	-1416.76123	-1796.8197	1240.50854	-1294.9375	-1688.02222	1366.49524	-1564.60876	-1737.71936	1170.04077	-1625.2063	-1754.47559	1047.47791	-1634.40552	-1753.79041	916.99554	-1636.66113	-1751.97412	798.02051	-1610.53418	-1784.72729	807.18414	-1653.453	-1787.4873	722.0766	-1643.63171	-1652.99634	1357.82495	-1249.24695	-1625.66846	1136.297	-1179.47437	-1594.62524	1027.66846	-1174.39038	-1552.06665	899.11084	-1190.54431	-1512.82373	816.44617	-1243.24377	-1529.59119	801.4231	-1194.20618	-1494.62634	740.1507	-1216.78967	-1629.61218	935.72998	-1524.49097	-1623.27991	927.54413	-1286.2699	-1792.50562	948.52283	-1471.58594	-1786.77271	957.38654	-1322.30981	-1623.67224	638.99146	-1589.63184	-1556.45361	473.20215	-1556.203	-1539.67078	285.89056	-1575.79382	-1474.0376	81.74139	-1562.43298	-1498.26843	33.73222	-1524.53137	-1319.26404	85.27625	-1546.21143	-1712.1626	634.98853	-1256.23438	-1735.91638	457.44211	-1298.0238	-1821.9613	284.44864	-1293.6825	-1910.68066	84.74846	-1338.52734	-1966.06287	60.42528	-1380.57642	-1778.39404	37.05894	-1373.08118	NaN	NaN	NaN	NaN	NaN	NaN	NaN	NaN	NaN	NaN	NaN	NaN	NaN	NaN	NaN	NaN	NaN	NaN
5	0.04	-1548.75439	1598.82666	-1465.72925	-1554.01904	1596.43054	-1332.39673	-1681.76135	1572.42212	-1468.01086	-1682.59961	1569.42102	-1336.93347	-1734.20129	1411.77209	-1405.75671	-1785.0968	1097.20874	-1400.46021	-1616.54663	1327.96191	-1415.09021	-1585.13818	1161.30066	-1418.67944	-1788.13586	1240.2439	-1298.33508	-1677.19067	1365.6958	-1567.52429	-1727.24695	1169.27063	-1628.05518	-1744.77856	1046.80078	-1637.11572	-1745.3092	916.2417	-1638.86902	-1745.36035	797.24854	-1612.08545	-1777.1886	806.73743	-1655.80542	-1781.01648	721.69574	-1645.77905	-1644.77246	1357.84143	-1251.78638	-1618.89612	1135.90039	-1181.75928	-1587.328	1027.18079	-1176.48645	-1544.79919	898.60364	-1192.51685	-1505.27148	816.02667	-1245.13745	-1522.33655	800.87183	-1196.18555	-1487.18103	739.69061	-1218.85229	-1619.83142	934.82916	-1526.28076	-1615.26099	927.04254	-1287.95471	-1783.00647	947.84619	-1474.63379	-1778.33533	956.95892	-1325.3053	-1615.60217	637.58276	-1590.3125	-1548.89246	471.78598	-1556.75146	-1530.7417	285.20001	-1576.9585	-1463.9552	80.85573	-1563.39783	-1488.5354	32.75857	-1526.41418	-1309.46851	85.634	-1544.93433	-1705.31335	634.85211	-1257.82166	-1729.71936	457.28027	-1299.0531	-1817.90942	285.40491	-1294.14185	-1909.73645	86.85992	-1338.54871	-1965.42529	63.18742	-1380.77869	-1778.24414	37.01749	-1373.03149	NaN	NaN	NaN	NaN	NaN	NaN	NaN	NaN	NaN	NaN	NaN	NaN	NaN	NaN	NaN	NaN	NaN	NaN
